<svg width="240" height="74" fill="none" xmlns="http://www.w3.org/2000/svg"><g clip-path="url(#a)" fill="#000"><path fill-rule="evenodd" clip-rule="evenodd" d="m37.42 0 2.416 1.459L42.49.365l2.192 1.775 2.783-.706 1.93 2.075 2.845-.308 1.627 2.326 2.862.105 1.292 2.529 2.822.51.933 2.691 2.727.9.55 2.796 2.575 1.272.167 2.845 2.376 1.629-.223 2.844 2.129 1.953-.614 2.78 1.842 2.229-.989 2.674 1.523 2.472-1.347 2.496 1.172 2.666-1.675 2.286.79 2.804-1.97 2.026.399 2.885-2.233 1.734v2.91l-2.44 1.402-.398 2.885-2.615 1.037-.79 2.804-2.726.657-1.164 2.666-2.799.268-1.514 2.471-2.807-.13-1.841 2.23-2.76-.527-2.128 1.953-2.655-.908L39.963 74l-2.511-1.28L34.877 74l-2.305-1.62-2.726.899-2.065-1.93-2.823.503-1.785-2.204-2.863.105-1.459-2.439-2.854-.3-1.108-2.617-2.783-.706-.75-2.747-2.654-1.094-.359-2.828-2.48-1.46.024-2.844-2.256-1.799.423-2.82-1.994-2.091.806-2.731-1.69-2.359 1.171-2.593L1 35.756l1.515-2.407-.98-2.74 1.825-2.163-.598-2.845 2.105-1.888-.2-2.91 2.345-1.564.199-2.909 2.535-1.224.59-2.844 2.68-.851.98-2.74 2.766-.47 1.348-2.569 2.806-.072 1.682-2.36 2.783.332 1.993-2.099 2.719.722 2.256-1.79 2.591 1.094L37.42 0Zm20.57 15.585a28.402 28.402 0 0 0-1.754-1.654c-8.89-2.155-19.852-1.248-26 2.148l-.055.324c10.133-3.598 20.49-2.464 28.845.284a26.768 26.768 0 0 0-1.036-1.103ZM41.374 7.018a30.134 30.134 0 0 0-4.56-.348c-8.268 0-15.754 3.404-21.176 8.915-5.421 5.51-8.77 13.12-8.77 21.524 0 8.413 3.349 16.023 8.77 21.525 3.676 3.736 8.3 6.508 13.474 7.902l-.048-.276c-6.163-2.342-8.794-4.643-9.559-5.332-1.22-1.102-1.882-1.8-2.304-3.299v-6.07c1.682-3.217 9.304-5.324 14.59-5.778.439-.065.94-.38.957-.956.088-1.759-.694-3.736-1.26-5.309-.55-1.523.08-4.011-.494-6.28-4.52-.195-12.605-1.816-15.746-4.822-.71-.625-.718-2.14 0-3.032 2.535-3.306 9.758-6.45 12.461-7.682-.104-.738-.056-1.961-.646-2.764-.39-.535-.335-1.037.08-1.45 3.572-3.656 9.01-5.657 14.231-6.468Zm17.317 50.887c.152-.162.303-.332.447-.494l-3.556-1.662c-.686.51-1.38.948-2.08 1.305l1.466 1.524.008-.009.008.017.024.024-.024.008c.191.81.231 1.337.191 2.14.12-.049.176-.057.303-.106.295-.802.487-1.386.558-2.293a61.02 61.02 0 0 0 2.632-.632l.023.178Zm5.733-8.98a30.771 30.771 0 0 0 2.344-11.816 30.18 30.18 0 0 0-.287-4.181c-1.993.64-4.736 1.28-6.96 1.726-.535 2.472-1.156 5.235-2.592 8.104l.008 3.444c0 .487.232.867.854.965 1.857.324 4.36.964 6.633 1.758Zm-46.011 4.198 1.825-.13.104.074-1.674.535c.223.316.502.607.773.834.136.106.287.162.55.098l2.16-.495.113.065-1.938.98c.008 0 .303 1.338.343 1.46.096.089.191.17.287.259-.04-.495-.064-.827 0-1.345.263.153.542.3.83.437a.447.447 0 0 0 .366-.008l2.432-.956.151.04-2.049 1.346c.048.786.192 1.337.47 2.058.096.057.192.113.296.17-.064-.672-.072-1.191.047-1.896.327.121.662.251 1.013.373.271.089.415-.008.542-.057l2.631-1.273.2.057-2.058 1.702c.056.916.216 1.58.519 2.456.111.04.23.089.343.138-.032-.827-.009-1.46.143-2.294.423.122.861.235 1.3.34.43.114.605.017.845-.121l2.79-1.63.192.05-2.097 2.139c.103.997.31 1.742.622 2.707.135.032.27.073.414.105.016-.948.032-1.67.192-2.593.47.089.94.17 1.419.251.486.081.566-.032.837-.26l2.113-1.936.223.016-1.555 2.447c.112 1.062.335 1.873.662 2.902.151.024.247.048.407.073.08-1.021.159-1.816.318-2.813.686.082 1.364.155 2.05.22.59.048.725-.066.932-.373l1.387-2.156h.176l-.67 2.658h.008c.144 1.086.39 1.856.678 2.901.183.009.279.017.454.025.184-1.022.335-1.775.447-2.853.9.032 1.802.016 2.695.016.223.008.422-.073.43-.43l.064-1.944a18.108 18.108 0 0 1-3.404-1.75l-9.823-6.33c-1.228-.794-2.567-.851-3.588-.803-3.133.154-7.207.94-8.73 2.942-.383.503-.47 1.046-.207 1.572Zm30.823-10.778c-.63-.77-1.22-1.28-2.352-1.856-.487-.243-.503-.51-.51-.738l-.264-4.133c-.032-.527.176-.762.726-.762l2.08-.016c3.565-.024 2.624 5.406 1.045 7.456-.319.422-.518.308-.725.049Zm-4.322 5.26c-1.172.915-4.138.42-4.999.072-.135-.056-.19.04-.12.138l.4 1.159c.566.494 1.108.68 1.993.9 1.291.324 1.794 1.442 1.355 2.78-1.3.38-2.703.21-3.803-.033-1.515-.794-3.436-2.529-4.21-4.125-.414-3.866-1.18-5.657-2.248-7.65-1.26-2.35-.478-4.547-.088-6.67l-.646-5.39c-.023-.34-.087-.713.503-1.126 4.616-3.266 13.091-2.358 17.173 1.491.439.413.391.835-.279.86-1.467.072-3.85.275-5.358.882-1.044.43-1.339 1.775-1.33 2.837l.087 7.075c-.574.843-1.706.916-2.496.113-.367.187-.869.69-1.044 1.248-.056.187.008.34.231.34h2.472c.494 0 .685.09.98.463.255.316.479.802.662 1.272.048.122.024.203-.12.187a1.963 1.963 0 0 0-.789.154c-.31.13-.47.13-.805.016-1.02-.349-2.304-.187-3.644.77l-.398-.292c-.272.089-.503 1.078-.16 1.556.2-.527.726-.73 1.085-.754a10.34 10.34 0 0 1 3.173.251c.398.098.55.065.94-.032.718-.17.981-.154 1.332-.065.287.3.542 1.273.151 1.572Zm-8.977-14.256c-.518.057-1.092.219-1.443.616-.247.275-.638.17-.622-.227.032-.883.47-2.237 1.068-2.966 1.746-.462 3.492-.146 4.856.389.973.38 1.403 1.459 1.403 2.52l-.008 2.87c0 .315-.207.331-.31.056l-.567-1.613c-.255-.737-.558-1.086-1.268-1.126a.587.587 0 0 0-.478.186c-.606.551-1.746.405-2.113-.421-.111-.252-.255-.308-.518-.284Zm13.275 25.764-.399-.803c-1.387.049-2.806-.178-4.25-.68l.51 2.301-.007.008c.223 1.038.47 1.767.662 2.731.183-.008.263-.024.438-.04.184-1.03.295-1.816.375-2.902a65.041 65.041 0 0 0 2.44-.227c.43-.048.319-.243.23-.389Zm4.64-.333-.813-1.5c-1.14.528-2.297.852-3.476.973l1.004 1.046h.016l.008.024c.215 1.021.311 1.734.335 2.65.127-.024.167-.048.295-.073.279-1.005.478-1.75.606-2.78a70.56 70.56 0 0 0 2.025-.34Z"/><path d="M122.53 62.476c-2.113 2.552-5.318 4.165-9.097 4.165H99.146V10.35h13.809c2.08 0 4.098.316 5.995 1.264 3.779 1.889 6.267 5.73 6.267 10.568v32.45c0 2.852-.877 5.648-2.687 7.845ZM83.686 10.349h8.26v56.292h-8.26V10.35ZM238.56 65.037c-1.332 1.337-2.958 1.596-4.664 1.596h-14.28c-1.794 0-3.42-.462-4.632-1.823-.893-.997-1.427-2.342-1.427-3.85V16.152c0-1.151.263-2.302.909-3.315.972-1.524 2.655-2.488 4.688-2.488h15.276c1.403 0 2.79.405 3.891 1.386 1.283 1.135 1.865 2.731 1.865 4.425v44.606c0 1.604-.47 3.12-1.626 4.27Zm-6.634-6.216V18.178h-10.101V58.82h10.101Zm-24.875 5.778c-1.108 1.402-2.775 2.042-4.513 2.042h-14.662c-1.706 0-3.213-.535-4.369-1.848-1.02-1.142-1.379-2.552-1.379-4.052V16.168c0-1.183.279-2.358.957-3.38 1.004-1.507 2.687-2.439 4.64-2.439h14.797c1.555 0 3.046.478 4.162 1.62 1.109 1.127 1.595 2.627 1.595 4.183V29.54h-8.3V18.178h-9.583v40.634h9.583v-12.82h-4.68l-1.706-7.732h14.686v22.198c0 1.499-.295 2.966-1.228 4.141Zm-47.287 2.042V10.35h8.26v48.472h9.735l2.32 7.82h-20.315Zm-14.152-11.783h-8.06l-1.93 11.783h-8.18l10.437-56.405h7.63l10.356 56.405h-8.299l-1.954-11.783Zm-1.172-7.464-2.838-16.898-2.862 16.898h5.7Zm-27.498 6.8V23.291c0-1.062 0-1.994-.518-2.975-.861-1.629-2.52-2.14-4.21-2.14h-4.8V58.82h4.712c1.26 0 2.576-.276 3.54-1.175.965-.9 1.276-2.164 1.276-3.453Z"/></g><defs><clipPath id="a"><path fill="#fff" d="M0 0h240v74H0z"/></clipPath></defs></svg>