<svg xmlns="http://www.w3.org/2000/svg" viewBox="0 0 652 652" style="enable-background:new 0 0 652 652" xml:space="preserve"><path d="m126.9 274.1-34.4 65.2h16.6l6.9-13.5h24.2l7-13.6H123l10.3-20 2.7-5.9 2.6 5.9 23.2 47.1h17l-33-65.2h-18.9zM238 323.7l-22.4-49.6h-20.3v65.2h14.9v-43.5l19.8 43.5h15.4l20.3-43.5v43.5h15v-65.2h-19.9L238 323.7zm163.1-5.9-37.5-43.7h-17.3v65.2h15.2v-44.7l38.3 44.7h16.3v-65.2h-15v43.7zm199.7-43.7-22.9 49.6-22.4-49.6h-20.3v65.2h14.9v-43.5l19.8 43.5h15.4l20.3-43.5v43.5h15v-65.2h-19.8zm-134.8 0-34.4 65.2h16.6l6.9-13.5h24.2l7-13.6H462l10.3-20 2.7-5.9 2.6 5.9 23.2 47.1h17l-33-65.2H466zm-160.5-.1h16v65.2h-16V274zm-282.6-.4v65.8h59v-13.2h-43v-52.6h-16zm7.8 95.7c-6.8 0-8.9-2.5-8.9-5h3.8c0 1.2 1.7 2.2 5.2 2.2s4.4-.6 4.4-1.6c0-1.1-.7-1.4-3.9-1.8-.6-.1-2.4-.3-3-.4-4.6-.5-6.3-1.9-6.3-4.3 0-2.5 2.6-4.5 8.1-4.5 6 0 8.4 2.4 8.4 4.9h-3.8c0-1.3-1.4-2-4.8-2-3.5 0-4.2.5-4.2 1.4 0 .9.8 1.3 4.4 1.7.8.1 2.7.3 3.2.4 3.9.4 5.6 1.8 5.6 4.3.1 3-2.6 4.7-8.2 4.7m26 0c-5 0-8.2-2-8.2-6.1v-9.1h3.6v9.1c0 1.9 1.5 3.1 4.7 3.1 2.9 0 4.6-1.2 4.6-3.1v-9.1H65v9.4c.1 3.8-2.9 5.8-8.3 5.8m34.1-6.5c-.9 1.2-2.5 1.8-4.8 1.8h-6.8v4.5h-3.6v-14.9H86c2.2 0 3.8.5 4.6 1.5.7.8 1.1 2 1.1 3.8 0 1.4-.3 2.6-.9 3.3m-3-4.8c-.4-.6-1.2-.9-2.6-.9h-6.1v4.5h6c1.5 0 2.3-.3 2.6-.9.2-.4.3-.9.3-1.4.1-.4 0-.9-.2-1.3m13.5 11.1v-14.9h14.6v3h-11.1v3h10.7v3h-10.7v3H116v3h-14.7zm40-8c-.5.9-1.4 1.4-2.4 1.6l4.5 6.4h-4.1l-4-5.8h-5.8v5.8H126v-14.9h10.6c2.3 0 3.7.6 4.5 1.7.5.7.8 1.5.8 2.7 0 1-.2 1.9-.6 2.5m-3.2-3.3c-.3-.5-.9-.7-1.9-.7h-6.7v3.3h6.9c1 0 1.5-.2 1.7-.6.2-.3.3-.7.3-1 0-.4-.1-.7-.3-1m14.4-3.7h3.7V369h-3.7v-14.9zm30.3 2.3c1.2 1.3 1.7 2.9 1.7 5.1 0 2.2-.6 3.9-1.7 5.2-1.5 1.7-4.1 2.6-7.6 2.6s-6-.9-7.5-2.6c-1.2-1.3-1.8-3-1.8-5.2 0-2 .5-3.7 1.7-4.9 1.7-1.9 4.1-2.7 7.7-2.7 3.4-.1 5.9.8 7.5 2.5m-3 8.5c.8-.7 1-2 1-3.3 0-1.3-.3-2.6-1-3.3-1-.9-2.3-1.5-4.7-1.5-2.3 0-3.8.6-4.6 1.5-.7.7-1 1.9-1 3.3s.3 2.7 1.3 3.5c1 .9 2.3 1.3 4.4 1.3 2.3 0 3.6-.5 4.6-1.5m29.7-3.8c-.5.9-1.4 1.5-2.4 1.6l4.5 6.4h-4.1l-4-5.8h-5.8v5.8h-3.6v-14.9h10.6c2.3 0 3.7.6 4.5 1.7.5.7.8 1.5.8 2.7.1.8-.1 1.7-.5 2.5m-3.2-3.3c-.3-.5-.9-.7-1.9-.7h-6.7v3.3h6.9c1 0 1.5-.2 1.7-.6.2-.3.3-.7.2-1 .1-.4 0-.7-.2-1m40.6 11.3-8.8-10.3v10.3h-3.5v-14.9h4l8.6 10v-10h3.4v14.9h-3.7zm16.2 0h-3.8l7.9-14.9h4.3l7.6 14.9h-3.9l-1.6-3.3h-8.8l-1.7 3.3zm6.7-10.8-.6-1.4-.6 1.4-2.4 4.6h5.8c.1 0-2.2-4.6-2.2-4.6m24.4-1.2V369h-3.7v-11.9H284v-3h16.8v3h-6.6zm23.4 12.2c-5 0-8.2-2-8.2-6.1v-9.1h3.6v9.1c0 1.9 1.5 3.1 4.7 3.1 2.9 0 4.6-1.2 4.6-3.1v-9.1h3.6v9.4c0 3.8-3 5.8-8.3 5.8m34.2-8.2c-.5.9-1.4 1.5-2.4 1.6l4.5 6.4h-4.1l-4-5.8H340v5.8h-3.6v-14.9H347c2.3 0 3.7.6 4.5 1.7.5.7.8 1.5.8 2.7.2.8 0 1.7-.5 2.5m-3.2-3.3c-.3-.5-.9-.7-1.9-.7H340v3.3h6.9c1 0 1.5-.2 1.7-.6.2-.3.3-.7.2-1 .1-.4 0-.7-.2-1m16.4 11.3h-3.8l7.9-14.9h4.3l7.6 14.9h-3.9l-1.6-3.3h-8.8l-1.7 3.3zm6.8-10.8-.6-1.4-.6 1.4-2.4 4.6h5.8l-2.2-4.6m17.9 10.8v-14.9h3.6v11.9h9.8v3h-13.4zm44.5.2c-6.8 0-8.9-2.5-8.9-5h3.8c0 1.2 1.7 2.2 5.2 2.2s4.4-.6 4.4-1.6c0-1.1-.7-1.4-3.9-1.8-.6-.1-2.4-.3-3-.4-4.6-.5-6.3-1.9-6.3-4.3 0-2.5 2.6-4.5 8.1-4.5 6 0 8.4 2.4 8.4 4.9h-3.8c0-1.3-1.4-2-4.8-2-3.5 0-4.2.5-4.2 1.4 0 .9.8 1.3 4.4 1.7.8.1 2.7.3 3.2.4 3.9.4 5.6 1.8 5.6 4.3.1 3-2.5 4.7-8.2 4.7m26.2 0c-5 0-8.2-2-8.2-6.1v-9.1h3.6v9.1c0 1.9 1.5 3.1 4.7 3.1 2.9 0 4.6-1.2 4.6-3.1v-9.1h3.6v9.4c0 3.8-3 5.8-8.3 5.8m34.1-8.2c-.5.9-1.4 1.4-2.4 1.6l4.5 6.4h-4.1l-4-5.8h-5.8v5.8h-3.6v-14.9h10.6c2.3 0 3.7.6 4.5 1.7.5.7.8 1.5.8 2.7.2 1-.1 1.9-.5 2.5m-3.1-3.3c-.3-.5-.9-.7-1.9-.7h-6.7v3.3h6.9c1 0 1.5-.2 1.7-.6.2-.3.3-.7.3-1 0-.4-.1-.7-.3-1m18-.7v3h10.1v3.1h-10.1v5.8h-3.6v-14.9H520v3h-10.6zm20.6 12h-3.8l7.9-14.9h4.3l7.6 14.9h-4l-1.6-3.3h-8.8l-1.6 3.3zm6.7-10.8-.6-1.4-.6 1.4-2.4 4.6h5.8l-2.2-4.6m33.9 7.6c-1.2 2.1-3.7 3.4-8.2 3.4-4 0-6.5-1.1-7.9-2.8-1-1.1-1.5-2.8-1.5-4.9 0-1.9.5-3.5 1.4-4.6 1.4-1.8 3.9-3.1 8-3.1 4.7 0 7.1 1.7 8.3 3.7.4.8.6 1.6.7 2.4h-3.7c-.1-.5-.3-1.1-.6-1.5-.7-.9-2.2-1.6-4.7-1.6-2.4 0-4 .7-4.9 1.9-.5.6-.7 1.6-.7 2.8 0 1.3.3 2.2.7 2.8 1 1.3 2.9 1.8 4.9 1.8 2.3 0 3.7-.4 4.7-1.5.4-.4.6-1 .6-1.5h3.7c0 1-.3 1.9-.8 2.7m10.3 3.2v-14.9h14.6v3h-11.1v3h10.7v3h-10.7v3h11.2v3h-14.7zm32.6.2c-6.8 0-8.9-2.5-8.9-5h3.8c0 1.2 1.7 2.2 5.2 2.2s4.4-.6 4.4-1.6c0-1.1-.7-1.4-3.9-1.8-.6-.1-2.4-.3-3-.4-4.6-.5-6.3-1.9-6.3-4.3 0-2.5 2.6-4.5 8.1-4.5 6.1 0 8.4 2.4 8.4 4.9h-3.8c0-1.3-1.4-2-4.8-2-3.5 0-4.2.5-4.2 1.4 0 .9.8 1.3 4.4 1.7.8.1 2.7.3 3.2.4 3.9.4 5.6 1.8 5.6 4.3.1 3-2.6 4.7-8.2 4.7" style="fill:#002a3a"/></svg>