<?xml version="1.0" encoding="utf-8"?>
<!-- Generator: Adobe Illustrator 19.2.1, SVG Export Plug-In . SVG Version: 6.00 Build 0)  -->
<svg version="1.1" id="layer" xmlns="http://www.w3.org/2000/svg" xmlns:xlink="http://www.w3.org/1999/xlink" x="0px" y="0px"
	 viewBox="0 0 652 652" style="enable-background:new 0 0 652 652;" xml:space="preserve">
<style type="text/css">
	.st0{fill:#002A3A;}
</style>
<path class="st0" d="M126.9,274.1l-34.4,65.2h16.6l6.9-13.5h24.2l7-13.6H123l10.3-20l2.7-5.9l2.6,5.9l23.2,47.1h17l-33-65.2H126.9z
	 M238,323.7l-22.4-49.6h-20.3v65.2h14.9v-43.5l19.8,43.5h15.4l20.3-43.5v43.5h15v-65.2h-19.9L238,323.7z M401.1,317.8l-37.5-43.7
	h-17.3v65.2h15.2v-44.7l38.3,44.7h16.3v-65.2h-15V317.8z M600.8,274.1l-22.9,49.6l-22.4-49.6h-20.3v65.2h14.9v-43.5l19.8,43.5h15.4
	l20.3-43.5v43.5h15v-65.2H600.8z M466,274.1l-34.4,65.2h16.6l6.9-13.5h24.2l7-13.6H462l10.3-20l2.7-5.9l2.6,5.9l23.2,47.1h17
	l-33-65.2H466z M305.5,274h16v65.2h-16V274z M22.9,273.6v65.8h59v-13.2h-43v-52.6H22.9z M22.9,273.6"/>
<path class="st0" d="M30.7,369.3c-6.8,0-8.9-2.5-8.9-5h3.8c0,1.2,1.7,2.2,5.2,2.2s4.4-0.6,4.4-1.6c0-1.1-0.7-1.4-3.9-1.8
	c-0.6-0.1-2.4-0.3-3-0.4c-4.6-0.5-6.3-1.9-6.3-4.3c0-2.5,2.6-4.5,8.1-4.5c6,0,8.4,2.4,8.4,4.9h-3.8c0-1.3-1.4-2-4.8-2
	c-3.5,0-4.2,0.5-4.2,1.4c0,0.9,0.8,1.3,4.4,1.7c0.8,0.1,2.7,0.3,3.2,0.4c3.9,0.4,5.6,1.8,5.6,4.3C39,367.6,36.3,369.3,30.7,369.3
	 M56.7,369.3c-5,0-8.2-2-8.2-6.1v-9.1h3.6v9.1c0,1.9,1.5,3.1,4.7,3.1c2.9,0,4.6-1.2,4.6-3.1v-9.1h3.6v9.4
	C65.1,367.3,62.1,369.3,56.7,369.3 M90.8,362.8c-0.9,1.2-2.5,1.8-4.8,1.8l-6.8,0v4.5h-3.6v-14.9H86c2.2,0,3.8,0.5,4.6,1.5
	c0.7,0.8,1.1,2,1.1,3.8C91.7,360.9,91.4,362.1,90.8,362.8 M87.8,358c-0.4-0.6-1.2-0.9-2.6-0.9h-6.1v4.5h6c1.5,0,2.3-0.3,2.6-0.9
	c0.2-0.4,0.3-0.9,0.3-1.4C88.1,358.9,88,358.4,87.8,358 M101.3,369.1v-14.9h14.6v3h-11.1v3h10.7v3h-10.7v3H116v3H101.3z
	 M141.3,361.1c-0.5,0.9-1.4,1.4-2.4,1.6l4.5,6.4h-4.1l-4-5.8h-5.8v5.8H126v-14.9h10.6c2.3,0,3.7,0.6,4.5,1.7
	c0.5,0.7,0.8,1.5,0.8,2.7C141.9,359.6,141.7,360.5,141.3,361.1 M138.1,357.8c-0.3-0.5-0.9-0.7-1.9-0.7h-6.7v3.3h6.9
	c1,0,1.5-0.2,1.7-0.6c0.2-0.3,0.3-0.7,0.3-1C138.4,358.4,138.3,358.1,138.1,357.8 M152.5,354.1h3.7v14.9h-3.7V354.1z M182.8,356.4
	c1.2,1.3,1.7,2.9,1.7,5.1c0,2.2-0.6,3.9-1.7,5.2c-1.5,1.7-4.1,2.6-7.6,2.6c-3.5,0-6-0.9-7.5-2.6c-1.2-1.3-1.8-3-1.8-5.2
	c0-2,0.5-3.7,1.7-4.9c1.7-1.9,4.1-2.7,7.7-2.7C178.7,353.8,181.2,354.7,182.8,356.4 M179.8,364.9c0.8-0.7,1-2,1-3.3
	c0-1.3-0.3-2.6-1-3.3c-1-0.9-2.3-1.5-4.7-1.5c-2.3,0-3.8,0.6-4.6,1.5c-0.7,0.7-1,1.9-1,3.3c0,1.4,0.3,2.7,1.3,3.5
	c1,0.9,2.3,1.3,4.4,1.3C177.5,366.4,178.8,365.9,179.8,364.9 M209.5,361.1c-0.5,0.9-1.4,1.5-2.4,1.6l4.5,6.4h-4.1l-4-5.8h-5.8v5.8
	h-3.6v-14.9h10.6c2.3,0,3.7,0.6,4.5,1.7c0.5,0.7,0.8,1.5,0.8,2.7C210.1,359.4,209.9,360.3,209.5,361.1 M206.3,357.8
	c-0.3-0.5-0.9-0.7-1.9-0.7h-6.7v3.3h6.9c1,0,1.5-0.2,1.7-0.6c0.2-0.3,0.3-0.7,0.2-1C206.6,358.4,206.5,358.1,206.3,357.8
	 M246.9,369.1l-8.8-10.3v10.3h-3.5v-14.9h4l8.6,10v-10h3.4v14.9H246.9z M263.1,369.1h-3.8l7.9-14.9h4.3l7.6,14.9h-3.9l-1.6-3.3h-8.8
	L263.1,369.1z M269.8,358.3l-0.6-1.4l-0.6,1.4l-2.4,4.6h5.8C272.1,362.9,269.8,358.3,269.8,358.3 M294.2,357.1v11.9h-3.7v-11.9H284
	v-3h16.8v3H294.2z M317.6,369.3c-5,0-8.2-2-8.2-6.1v-9.1h3.6v9.1c0,1.9,1.5,3.1,4.7,3.1c2.9,0,4.6-1.2,4.6-3.1v-9.1h3.6v9.4
	C325.9,367.3,322.9,369.3,317.6,369.3 M351.8,361.1c-0.5,0.9-1.4,1.5-2.4,1.6l4.5,6.4h-4.1l-4-5.8H340v5.8h-3.6v-14.9h10.6
	c2.3,0,3.7,0.6,4.5,1.7c0.5,0.7,0.8,1.5,0.8,2.7C352.5,359.4,352.3,360.3,351.8,361.1 M348.6,357.8c-0.3-0.5-0.9-0.7-1.9-0.7H340
	v3.3h6.9c1,0,1.5-0.2,1.7-0.6c0.2-0.3,0.3-0.7,0.2-1C348.9,358.4,348.8,358.1,348.6,357.8 M365,369.1h-3.8l7.9-14.9h4.3l7.6,14.9
	h-3.9l-1.6-3.3h-8.8L365,369.1z M371.8,358.3l-0.6-1.4l-0.6,1.4l-2.4,4.6h5.8C374,362.9,371.8,358.3,371.8,358.3 M389.7,369.1v-14.9
	h3.6v11.9h9.8v3H389.7z M434.2,369.3c-6.8,0-8.9-2.5-8.9-5h3.8c0,1.2,1.7,2.2,5.2,2.2s4.4-0.6,4.4-1.6c0-1.1-0.7-1.4-3.9-1.8
	c-0.6-0.1-2.4-0.3-3-0.4c-4.6-0.5-6.3-1.9-6.3-4.3c0-2.5,2.6-4.5,8.1-4.5c6,0,8.4,2.4,8.4,4.9h-3.8c0-1.3-1.4-2-4.8-2
	c-3.5,0-4.2,0.5-4.2,1.4c0,0.9,0.8,1.3,4.4,1.7c0.8,0.1,2.7,0.3,3.2,0.4c3.9,0.4,5.6,1.8,5.6,4.3
	C442.5,367.6,439.9,369.3,434.2,369.3 M460.4,369.3c-5,0-8.2-2-8.2-6.1v-9.1h3.6v9.1c0,1.9,1.5,3.1,4.7,3.1c2.9,0,4.6-1.2,4.6-3.1
	v-9.1h3.6v9.4C468.7,367.3,465.7,369.3,460.4,369.3 M494.5,361.1c-0.5,0.9-1.4,1.4-2.4,1.6l4.5,6.4h-4.1l-4-5.8h-5.8v5.8h-3.6v-14.9
	h10.6c2.3,0,3.7,0.6,4.5,1.7c0.5,0.7,0.8,1.5,0.8,2.7C495.2,359.6,494.9,360.5,494.5,361.1 M491.4,357.8c-0.3-0.5-0.9-0.7-1.9-0.7
	h-6.7v3.3h6.9c1,0,1.5-0.2,1.7-0.6c0.2-0.3,0.3-0.7,0.3-1C491.7,358.4,491.6,358.1,491.4,357.8 M509.4,357.1v3h10.1v3.1h-10.1v5.8
	h-3.6v-14.9h14.2v3H509.4z M530,369.1h-3.8l7.9-14.9h4.3l7.6,14.9H542l-1.6-3.3h-8.8L530,369.1z M536.7,358.3l-0.6-1.4l-0.6,1.4
	l-2.4,4.6h5.8L536.7,358.3 M570.6,365.9c-1.2,2.1-3.7,3.4-8.2,3.4c-4,0-6.5-1.1-7.9-2.8c-1-1.1-1.5-2.8-1.5-4.9
	c0-1.9,0.5-3.5,1.4-4.6c1.4-1.8,3.9-3.1,8-3.1c4.7,0,7.1,1.7,8.3,3.7c0.4,0.8,0.6,1.6,0.7,2.4h-3.7c-0.1-0.5-0.3-1.1-0.6-1.5
	c-0.7-0.9-2.2-1.6-4.7-1.6c-2.4,0-4,0.7-4.9,1.9c-0.5,0.6-0.7,1.6-0.7,2.8c0,1.3,0.3,2.2,0.7,2.8c1,1.3,2.9,1.8,4.9,1.8
	c2.3,0,3.7-0.4,4.7-1.5c0.4-0.4,0.6-1,0.6-1.5h3.7C571.4,364.2,571.1,365.1,570.6,365.9 M580.9,369.1v-14.9h14.6v3h-11.1v3h10.7v3
	h-10.7v3h11.2v3H580.9z M613.5,369.3c-6.8,0-8.9-2.5-8.9-5h3.8c0,1.2,1.7,2.2,5.2,2.2c3.5,0,4.4-0.6,4.4-1.6c0-1.1-0.7-1.4-3.9-1.8
	c-0.6-0.1-2.4-0.3-3-0.4c-4.6-0.5-6.3-1.9-6.3-4.3c0-2.5,2.6-4.5,8.1-4.5c6.1,0,8.4,2.4,8.4,4.9h-3.8c0-1.3-1.4-2-4.8-2
	c-3.5,0-4.2,0.5-4.2,1.4c0,0.9,0.8,1.3,4.4,1.7c0.8,0.1,2.7,0.3,3.2,0.4c3.9,0.4,5.6,1.8,5.6,4.3
	C621.8,367.6,619.1,369.3,613.5,369.3"/>
</svg>
